<?xml version="1.0" encoding="UTF-8"?>
<!DOCTYPE svg PUBLIC "-//W3C//DTD SVG 1.1//EN" "http://www.w3.org/Graphics/SVG/1.1/DTD/svg11.dtd">
<!-- Creator: CorelDRAW X5 -->
<svg xmlns="http://www.w3.org/2000/svg" xml:space="preserve" width="111px" height="185px" style="shape-rendering:geometricPrecision; text-rendering:geometricPrecision; image-rendering:optimizeQuality; fill-rule:evenodd; clip-rule:evenodd"
viewBox="0 0 11100 18500"
 xmlns:xlink="http://www.w3.org/1999/xlink">
 <defs>
  <style type="text/css">
   <![CDATA[
    .fil1 {fill:#221E1E}
    .fil0 {fill:#35B2F7}
    .fil2 {fill:#48B6F8}
   ]]>
  </style>
 </defs>
 <g id="Слой_x0020_1">
  <metadata id="CorelCorpID_0Corel-Layer"/>
  <path class="fil0" d="M4327 954c494,-460 1291,-662 2001,-662 493,0 1041,138 1444,307 461,193 773,407 1093,668 899,733 1584,2204 942,3405 -294,549 -759,943 -1343,1159 -863,319 -1856,249 -2688,-115 -1866,-818 -3205,-3128 -1448,-4762zm1531 -951l-659 0c-70,26 -378,40 -484,56 -700,109 -1388,358 -1943,777 -1505,1136 -1711,2974 -756,4622 126,217 306,471 457,640 45,50 67,82 122,140 47,49 81,98 130,149 97,101 180,167 281,260 189,176 383,327 613,484 1662,1130 4066,1498 5896,356 287,-179 384,-288 603,-494 730,-691 1179,-1954 786,-3283 -213,-723 -634,-1377 -1114,-1884 -868,-917 -2158,-1565 -3435,-1759 -131,-20 -398,-21 -497,-63z"/>
  <path class="fil0" d="M1802 1320c-81,26 -522,525 -591,612 -1473,1849 -1607,4354 -309,6342 109,166 221,316 342,461 919,1100 2173,1806 3665,1972 1783,198 3459,-467 4641,-1719 39,-42 63,-56 99,-102 264,-340 312,-344 594,-812 153,-254 438,-802 503,-1119 -53,54 -90,115 -135,173 -47,60 -93,120 -148,176 -60,62 -80,104 -155,170 -60,52 -107,101 -161,163 -47,54 -273,242 -339,295 -123,98 -238,182 -377,273 -523,339 -1093,599 -1806,760 -1521,344 -3079,-20 -4192,-704 -2330,-1431 -3252,-4343 -1755,-6744 34,-55 103,-141 125,-198z"/>
  <path class="fil0" d="M4730 2383c0,437 86,720 286,1065 125,216 300,442 484,598 32,27 52,54 87,82 465,384 1087,688 1884,688 535,0 1032,-199 1342,-458 950,-793 667,-2145 -182,-2887 -484,-423 -1111,-767 -1947,-767 -1006,0 -1954,658 -1954,1680z"/>
  <path class="fil1" d="M10013 13238c227,-48 429,20 427,255 -2,245 -264,265 -427,238l0 -493zm-506 1526l505 0 0 -738c75,88 160,255 224,364 31,51 183,361 247,374l576 0c-40,-115 -447,-638 -516,-776 68,-45 116,-24 248,-124 228,-173 235,-627 39,-842 -140,-153 -300,-190 -554,-200 -253,-10 -512,-5 -766,-5l-5 1946z"/>
  <path class="fil1" d="M960 13160c47,100 94,323 132,440 44,136 98,295 133,434l-523 0 258 -874zm-1013 1577l0 26 510 1c46,-12 49,-80 73,-163 19,-66 34,-117 50,-184l742 -1c54,41 100,274 116,348l537 0 -678 -1948 -663 1 -688 1919z"/>
  <path class="fil1" d="M5842 18461l-4 -1441c38,22 59,55 89,89l630 667c97,110 671,723 717,752l0 -2006 -223 0 -3 1461 -619 -667c-33,-36 -60,-54 -93,-92l-702 -761 -32 -19 4 2020c42,13 135,18 183,13l54 -17z"/>
  <polygon class="fil1" points="5355,14764 5899,14764 5899,12818 5362,12818 "/>
  <path class="fil1" d="M4166 16971l312 696 -613 3c36,-117 101,-243 150,-355 51,-116 105,-234 152,-344zm-636 1494c46,-94 92,-205 135,-309 43,-104 98,-286 159,-286l695 0c55,0 72,90 92,137 39,92 171,412 200,458l255 -3 -898 -2012c-57,92 -874,1959 -885,2015l247 0z"/>
  <path class="fil1" d="M8325 16735l800 0 4 -212 -1039 0c0,345 -15,1708 4,1943l1031 0 4 -220 -803 -2 -1 -736 800 0 4 -220 -803 -2 -1 -551z"/>
  <path class="fil1" d="M441 16734c253,0 534,-14 600,208 80,269 -70,439 -332,424l-269 5 0 -638zm-232 -212c-15,23 -17,-36 -16,108 0,41 0,83 0,124 0,380 -18,1500 4,1711 38,12 145,13 245,7l0 -879 10 0c0,0 0,-1 0,-1 39,0 79,1 120,1l144 0c146,-3 288,-22 394,-93 146,-99 235,-318 194,-559 -87,-509 -594,-418 -1095,-418z"/>
  <polygon class="fil1" points="10460,16742 11006,16737 11010,16522 9654,16526 9654,16741 10200,16742 10211,18468 10453,18465 "/>
  <path class="fil1" d="M2183 18237l0 -1714 -227 -1c-15,23 -10,-4 -16,46l1 186c0,395 -20,1481 0,1715l988 -4 -3 -227 -742 0z"/>
  <path class="fil1" d="M7589 13422c-488,109 -341,850 171,745 488,-100 340,-859 -171,-745z"/>
  <path class="fil1" d="M3428 13429c-502,139 -286,875 214,732 173,-49 320,-239 260,-468 -47,-179 -239,-330 -474,-265z"/>
  <path class="fil2" d="M1802 1320c26,6 17,9 17,-21 -48,0 -1,-6 -17,21z"/>
 </g>
</svg>
