
<svg xmlns="http://www.w3.org/2000/svg" xml:space="preserve" width="121px" height="38px" style="shape-rendering:geometricPrecision; text-rendering:geometricPrecision; image-rendering:optimizeQuality; fill-rule:evenodd; clip-rule:evenodd"
viewBox="0 0 12100 3800"
 xmlns:xlink="http://www.w3.org/1999/xlink">
 <defs>
  <style type="text/css">
   <![CDATA[
    .fil0 {fill:#FEFEFE}
   ]]>
  </style>
 </defs>
 <g id="Слой_x0020_1">
  <metadata id="CorelCorpID_0Corel-Layer"/>
  <g id="_283011800">
   <path class="fil0" d="M1161 932c0,-176 39,-307 116,-427 67,-105 151,-188 258,-252 247,-148 556,-175 835,-107 203,49 357,129 515,246 46,34 96,79 136,119 24,23 97,113 114,137 189,269 272,598 115,913 -96,192 -260,319 -461,394 -340,127 -749,51 -1057,-134 -66,-40 -130,-86 -187,-137 -77,-69 -133,-128 -193,-210 -105,-146 -191,-353 -191,-541zm-695 177c0,188 6,269 66,448 50,148 128,289 219,410 31,41 61,76 94,116 8,9 16,16 25,25 26,25 33,45 79,81l111 98c354,285 788,447 1276,447 204,0 422,-47 578,-109 112,-45 250,-118 342,-196 115,-98 173,-161 251,-283 11,-17 18,-31 28,-50 216,-388 145,-858 -91,-1218 -8,-13 -12,-21 -21,-33 -49,-67 -81,-116 -141,-180 -10,-10 -12,-16 -23,-27 -10,-10 -17,-17 -27,-27 -55,-55 -106,-105 -167,-154 -177,-140 -328,-225 -538,-309 -51,-21 -101,-37 -156,-53 -29,-9 -53,-16 -83,-24 -83,-21 -181,-40 -269,-48 -268,-26 -491,-8 -731,72 -161,54 -362,159 -484,281 -71,72 -80,80 -142,162 -22,29 -42,62 -61,95 -26,47 -29,57 -51,101 -45,92 -86,267 -86,374z"/>
   <path class="fil0" d="M3563 2322c-4,3 -97,124 -120,147 -118,120 -171,172 -318,270 -322,215 -693,307 -1096,295 -76,-2 -209,-22 -285,-36 -166,-32 -332,-92 -477,-164 -40,-20 -103,-54 -140,-78 -228,-150 -391,-290 -546,-523 -15,-22 -27,-42 -42,-65 -91,-138 -181,-381 -208,-544 -5,-32 -9,-59 -14,-93 -43,-321 33,-688 197,-957l62 -99c9,-13 18,-20 22,-35l-36 30c-26,24 -111,112 -130,137 -7,9 -9,10 -16,17 -58,65 -137,181 -181,255 -17,29 -30,56 -47,85l-44 92c-78,181 -151,437 -151,650l0 4c0,191 -1,296 48,489 84,334 240,613 484,857 23,23 44,41 68,64 73,70 227,176 313,225 28,16 57,32 88,48 61,30 121,56 187,80 125,47 278,87 436,103 360,35 645,-15 964,-151 16,-7 29,-15 44,-22 29,-13 63,-30 90,-45l123 -75c53,-35 104,-74 154,-114l73 -63c12,-12 21,-23 36,-34 29,-23 42,-44 67,-69 41,-41 86,-98 123,-145 96,-123 181,-286 240,-431 8,-19 33,-83 33,-102z"/>
   <path class="fil0" d="M1560 805c0,144 36,250 95,354 60,104 111,151 190,225 144,134 406,231 599,231 264,0 498,-101 613,-321 100,-192 71,-411 -33,-592 -12,-21 -26,-43 -40,-62l-45 -58c-78,-87 -124,-128 -224,-192 -147,-94 -326,-145 -517,-145 -231,0 -477,121 -576,321 -30,61 -62,147 -62,239z"/>
   <path class="fil0" d="M11513 583l-95 0 0 -317c159,0 271,-14 271,177 0,102 -86,140 -177,140zm-415 654l321 0 4 -472c24,35 79,133 103,172l106 178c25,41 49,80 71,122l387 0c-4,-17 -67,-103 -81,-124l-171 -248c-30,-43 -56,-83 -85,-125 67,-6 133,-49 182,-90 27,-22 61,-81 75,-122 34,-101 30,-223 -17,-316 -26,-52 -54,-90 -99,-123 -43,-32 -92,-55 -150,-68 -129,-28 -497,-17 -645,-17l0 1234z"/>
   <path class="fil0" d="M5673 212l38 143c32,111 78,238 108,345 8,27 17,48 22,72l-333 0c8,-34 114,-369 128,-415 7,-21 14,-50 19,-71 5,-21 15,-53 17,-73zm-646 1024l341 0 32 -107c8,-25 25,-92 33,-111l481 0c16,69 47,153 62,218l341 0c-6,-27 -17,-49 -26,-77 -9,-28 -19,-51 -27,-76 -18,-53 -36,-103 -54,-155 -35,-96 -74,-221 -109,-311 -32,-84 -76,-221 -108,-311 -19,-52 -37,-102 -54,-155l-41 -115c-4,-12 -5,-33 -20,-33l-411 0c-14,0 -14,16 -19,30l-96 270c-30,79 -80,228 -108,312 -28,83 -207,578 -217,622z"/>
   <path class="fil0" d="M8625 3585l144 0 0 -921 684 727c36,38 73,81 113,121 22,22 99,111 116,122l0 -1283 -144 0 0 934c-18,-13 -112,-123 -141,-151 -13,-13 -17,-19 -29,-33l-113 -122c-10,-11 -19,-18 -29,-29l-58 -62c-47,-51 -92,-105 -142,-154l-58 -62c-13,-12 -16,-18 -27,-31l-318 -340 0 1283z"/>
   <path class="fil0" d="M8461 1237l337 0c9,0 12,-3 12,-12l0 -1222 -349 0 0 1234z"/>
   <path class="fil0" d="M10197 3585l662 0 0 -140 -510 0 0 -465 498 0c9,0 12,-3 12,-12l0 -119c0,-10 -3,-12 -12,-12l-498 0 0 -350 510 0 0 -136 -662 0 0 1234z"/>
   <path class="fil0" d="M7712 2635c4,19 86,198 96,221 17,39 31,75 48,112l49 111 -391 0c3,-13 126,-288 146,-336l37 -83c6,-12 6,-19 15,-26zm-568 950l165 0c2,-24 149,-342 156,-374l489 0 160 374 164 0 -36 -80c-47,-100 -96,-227 -141,-319l-143 -322c-12,-27 -23,-52 -35,-80 -25,-54 -209,-467 -212,-483 -14,11 -31,61 -38,78 -11,26 -23,52 -35,80l-355 801c-16,36 -139,312 -140,325z"/>
   <path class="fil0" d="M5393 2898l-54 0 0 -411c121,0 312,-7 367,93 35,64 38,164 1,230 -47,87 -212,88 -315,88zm-201 687l148 0 0 -551c151,0 337,14 445,-73 113,-92 144,-271 85,-419 -60,-151 -194,-190 -369,-190l-308 0 0 1234z"/>
   <path class="fil0" d="M11192 2495l354 0 0 1090 152 0 0 -1090 341 0c9,0 12,-3 12,-12l0 -119c0,-10 -3,-12 -12,-12l-847 0 0 144z"/>
   <polygon class="fil0" points="6298,3585 6919,3585 6919,3441 6450,3441 6450,2351 6298,2351 "/>
   <path class="fil0" d="M9929 866c92,0 184,-52 224,-130 123,-243 -172,-467 -373,-303 -9,8 -17,12 -24,21 -165,199 5,412 174,412z"/>
   <path class="fil0" d="M7059 599c0,59 -3,78 26,134 10,20 32,52 49,66 197,164 414,-8 414,-155 0,-55 1,-84 -26,-134 -26,-49 -69,-89 -120,-111 -182,-76 -344,73 -344,200z"/>
   <polygon class="fil0" points="597,439 601,439 598,434 "/>
   <polygon class="fil0" points="3563,2322 3567,2322 3563,2318 "/>
  </g>
 </g>
</svg>
